Comme-ExtraBold.ufo
<glyph name="quotesingle" format="1">
  <advance width="633"/>
  <unicode hex="0027"/>
  <outline>
    <contour>
      <point x="237" y="906" type="line"/>
      <point x="395" y="906" type="line"/>
      <point x="442" y="1555" type="line"/>
      <point x="142" y="1555" type="line"/>
    </contour>
  </outline>
</glyph>
<glyph name="plus" format="1">
  <advance width="1190"/>
  <unicode hex="002B"/>
  <outline>
    <contour>
      <point x="470" y="1232" type="line"/>
      <point x="470" y="860" type="line"/>
      <point x="103" y="860" type="line"/>
      <point x="103" y="617" type="line"/>
      <point x="470" y="617" type="line"/>
      <point x="470" y="237" type="line"/>
      <point x="718" y="237" type="line"/>
      <point x="718" y="617" type="line"/>
      <point x="1085" y="617" type="line"/>
      <point x="1085" y="860" type="line"/>
      <point x="719" y="860" type="line"/>
      <point x="719" y="1232" type="line"/>
    </contour>
  </outline>
</glyph>
<glyph name="hyphen" format="1">
  <advance width="960"/>
  <unicode hex="002D"/>
  <outline>
    <contour>
      <point x="143" y="422" type="line"/>
      <point x="826" y="422" type="line"/>
      <point x="826" y="646" type="line"/>
      <point x="143" y="646" type="line"/>
    </contour>
  </outline>
</glyph>
<glyph name="two" format="1">
  <advance width="1378"/>
  <unicode hex="0032"/>
  <outline>
    <contour>
      <point x="309" y="1027" type="line"/>
      <point x="397" y="1133"/>
      <point x="536" y="1208"/>
      <point x="669" y="1208" type="curve" smooth="yes"/>
      <point x="781" y="1208"/>
      <point x="859" y="1133"/>
      <point x="859" y="1021" type="curve" smooth="yes"/>
      <point x="859" y="937"/>
      <point x="817" y="863"/>
      <point x="726" y="774" type="curve" smooth="yes"/>
      <point x="184" y="241" type="line"/>
      <point x="241" y="0" type="line"/>
      <point x="1179" y="0" type="line"/>
      <point x="1189" y="249" type="line"/>
      <point x="608" y="249" type="line"/>
      <point x="928" y="551" type="line" smooth="yes"/>
      <point x="1129" y="740"/>
      <point x="1199" y="878"/>
      <point x="1199" y="1014" type="curve" smooth="yes"/>
      <point x="1199" y="1236"/>
      <point x="1073" y="1476"/>
      <point x="672" y="1476" type="curve" smooth="yes"/>
      <point x="415" y="1476"/>
      <point x="225" y="1336"/>
      <point x="115" y="1204" type="curve"/>
      <point x="283" y="1027" type="line"/>
    </contour>
  </outline>
</glyph>
<glyph name="four" format="1">
  <advance width="1378"/>
  <unicode hex="0034"/>
  <outline>
    <contour>
      <point x="369" y="557" type="line"/>
      <point x="698" y="1113" type="line"/>
      <point x="698" y="557" type="line"/>
    </contour>
    <contour>
      <point x="699" y="0" type="line"/>
      <point x="1078" y="0" type="line"/>
      <point x="1078" y="325" type="line"/>
      <point x="1279" y="325" type="line"/>
      <point x="1295" y="563" type="line"/>
      <point x="1078" y="563" type="line"/>
      <point x="1078" y="1456" type="line"/>
      <point x="636" y="1456" type="line"/>
      <point x="92" y="543" type="line"/>
      <point x="111" y="325" type="line"/>
      <point x="699" y="325" type="line"/>
    </contour>
  </outline>
</glyph>
<glyph name="less" format="1">
  <advance width="1107"/>
  <unicode hex="003C"/>
  <outline>
    <contour>
      <point x="1001" y="187" type="line"/>
      <point x="1001" y="441" type="line"/>
      <point x="393" y="729" type="line"/>
      <point x="1001" y="1044" type="line"/>
      <point x="1001" y="1288" type="line"/>
      <point x="55" y="792" type="line"/>
      <point x="55" y="652" type="line"/>
    </contour>
  </outline>
</glyph>
<glyph name="A" format="1">
  <advance width="1538"/>
  <unicode hex="0041"/>
  <outline>
    <contour>
      <point x="777" y="1456" type="move" name="top"/>
    </contour>
    <contour>
      <point x="533" y="1456" type="line"/>
      <point x="53" y="0" type="line"/>
      <point x="436" y="0" type="line"/>
      <point x="550" y="362" type="line"/>
      <point x="982" y="362" type="line"/>
      <point x="1102" y="0" type="line"/>
      <point x="1485" y="0" type="line"/>
      <point x="1011" y="1456" type="line"/>
    </contour>
    <contour>
      <point x="619" y="593" type="line"/>
      <point x="771" y="1150" type="line"/>
      <point x="918" y="593" type="line"/>
    </contour>
  </outline>
</glyph>
<glyph name="C" format="1">
  <advance width="1593"/>
  <unicode hex="0043"/>
  <outline>
    <contour>
      <point x="881" y="1456" type="move" name="top"/>
    </contour>
    <contour>
      <point x="1485" y="1026" type="line"/>
      <point x="1449" y="1189"/>
      <point x="1295" y="1476"/>
      <point x="853" y="1476" type="curve" smooth="yes"/>
      <point x="387" y="1476"/>
      <point x="116" y="1206"/>
      <point x="116" y="733" type="curve" smooth="yes"/>
      <point x="116" y="248"/>
      <point x="387" y="-20"/>
      <point x="852" y="-20" type="curve" smooth="yes"/>
      <point x="1309" y="-20"/>
      <point x="1449" y="260"/>
      <point x="1485" y="427" type="curve"/>
      <point x="1206" y="540" type="line"/>
      <point x="1178" y="540" type="line"/>
      <point x="1143" y="404"/>
      <point x="1054" y="238"/>
      <point x="858" y="238" type="curve" smooth="yes"/>
      <point x="856" y="238" type="line" smooth="yes"/>
      <point x="663" y="238"/>
      <point x="522" y="366"/>
      <point x="522" y="733" type="curve" smooth="yes"/>
      <point x="522" y="1089"/>
      <point x="640" y="1201"/>
      <point x="859" y="1217" type="curve"/>
      <point x="870" y="1217" type="line" smooth="yes"/>
      <point x="1057" y="1217"/>
      <point x="1144" y="1046"/>
      <point x="1178" y="913" type="curve"/>
      <point x="1206" y="913" type="line"/>
    </contour>
  </outline>
</glyph>
<glyph name="E" format="1">
  <advance width="1361"/>
  <unicode hex="0045"/>
  <outline>
    <contour>
      <point x="756" y="1456" type="move" name="top"/>
    </contour>
    <contour>
      <point x="171" y="1456" type="line"/>
      <point x="171" y="0" type="line"/>
      <point x="1229" y="0" type="line"/>
      <point x="1233" y="260" type="line"/>
      <point x="551" y="260" type="line"/>
      <point x="551" y="619" type="line"/>
      <point x="1175" y="619" type="line"/>
      <point x="1175" y="872" type="line"/>
      <point x="551" y="872" type="line"/>
      <point x="551" y="1205" type="line"/>
      <point x="1194" y="1205" type="line"/>
      <point x="1214" y="1456" type="line"/>
    </contour>
  </outline>
</glyph>
<glyph name="J" format="1">
  <advance width="817"/>
  <unicode hex="004A"/>
  <outline>
    <contour>
      <point x="458" y="1456" type="move" name="top"/>
    </contour>
    <contour>
      <point x="263" y="1456" type="line"/>
      <point x="263" y="280" type="line" smooth="yes"/>
      <point x="263" y="-81"/>
      <point x="254" y="-138"/>
      <point x="140" y="-194" type="curve" smooth="yes"/>
      <point x="-55" y="-289" type="line"/>
      <point x="78" y="-581" type="line"/>
      <point x="245" y="-507" type="line" smooth="yes"/>
      <point x="617" y="-343"/>
      <point x="643" y="-209"/>
      <point x="643" y="107" type="curve" smooth="yes"/>
      <point x="643" y="157"/>
      <point x="642" y="211"/>
      <point x="642" y="271" type="curve" smooth="yes"/>
      <point x="642" y="1456" type="line"/>
    </contour>
  </outline>
</glyph>
<glyph name="K" format="1">
  <advance width="1452"/>
  <unicode hex="004B"/>
  <outline>
    <contour>
      <point x="779" y="1456" type="move" name="top"/>
    </contour>
    <contour>
      <point x="1399" y="1456" type="line"/>
      <point x="981" y="1456" type="line"/>
      <point x="552" y="897" type="line"/>
      <point x="552" y="1456" type="line"/>
      <point x="171" y="1456" type="line"/>
      <point x="171" y="0" type="line"/>
      <point x="552" y="0" type="line"/>
      <point x="552" y="529" type="line"/>
      <point x="602" y="589" type="line"/>
      <point x="1029" y="0" type="line"/>
      <point x="1453" y="0" type="line"/>
      <point x="1453" y="6" type="line"/>
      <point x="880" y="794" type="line"/>
      <point x="1399" y="1453" type="line"/>
    </contour>
  </outline>
</glyph>
<glyph name="M" format="1">
  <advance width="1905"/>
  <unicode hex="004D"/>
  <outline>
    <contour>
      <point x="954" y="1456" type="move" name="top"/>
    </contour>
    <contour>
      <point x="153" y="-6" type="line"/>
      <point x="508" y="-6" type="line"/>
      <point x="508" y="555" type="line"/>
      <point x="516" y="902" type="line"/>
      <point x="834" y="237" type="line"/>
      <point x="1062" y="237" type="line"/>
      <point x="1387" y="901" type="line"/>
      <point x="1394" y="558" type="line"/>
      <point x="1394" y="-6" type="line"/>
      <point x="1752" y="-6" type="line"/>
      <point x="1752" y="621" type="line"/>
      <point x="1730" y="1456" type="line"/>
      <point x="1352" y="1456" type="line"/>
      <point x="957" y="662" type="line"/>
      <point x="561" y="1456" type="line"/>
      <point x="175" y="1456" type="line"/>
      <point x="153" y="612" type="line"/>
    </contour>
  </outline>
</glyph>
<glyph name="S" format="1">
  <advance width="1228"/>
  <unicode hex="0053"/>
  <outline>
    <contour>
      <point x="618" y="1458" type="move" name="top"/>
    </contour>
    <contour>
      <point x="1107" y="1206" type="line"/>
      <point x="1063" y="1325"/>
      <point x="898" y="1476"/>
      <point x="606" y="1476" type="curve" smooth="yes"/>
      <point x="331" y="1476"/>
      <point x="90" y="1357"/>
      <point x="90" y="1055" type="curve" smooth="yes"/>
      <point x="90" y="830"/>
      <point x="198" y="735"/>
      <point x="358" y="669" type="curve" smooth="yes"/>
      <point x="582" y="577" type="line" smooth="yes"/>
      <point x="736" y="514"/>
      <point x="762" y="471"/>
      <point x="762" y="391" type="curve" smooth="yes"/>
      <point x="762" y="288"/>
      <point x="697" y="248"/>
      <point x="597" y="248" type="curve" smooth="yes"/>
      <point x="496" y="248"/>
      <point x="390" y="333"/>
      <point x="337" y="404" type="curve"/>
      <point x="304" y="404" type="line"/>
      <point x="76" y="236" type="line"/>
      <point x="153" y="117"/>
      <point x="322" y="-20"/>
      <point x="613" y="-20" type="curve" smooth="yes"/>
      <point x="921" y="-20"/>
      <point x="1147" y="131"/>
      <point x="1147" y="414" type="curve" smooth="yes"/>
      <point x="1147" y="676"/>
      <point x="1019" y="766"/>
      <point x="810" y="850" type="curve" smooth="yes"/>
      <point x="638" y="918" type="line" smooth="yes"/>
      <point x="509" y="970"/>
      <point x="462" y="1002"/>
      <point x="462" y="1086" type="curve" smooth="yes"/>
      <point x="463" y="1187"/>
      <point x="541" y="1228"/>
      <point x="626" y="1228" type="curve" smooth="yes"/>
      <point x="694" y="1227"/>
      <point x="793" y="1181"/>
      <point x="833" y="1080" type="curve"/>
      <point x="857" y="1080" type="line"/>
    </contour>
  </outline>
</glyph>
<glyph name="U" format="1">
  <advance width="1528"/>
  <unicode hex="0055"/>
  <outline>
    <contour>
      <point x="764" y="1456" type="move" name="top"/>
    </contour>
    <contour>
      <point x="1005" y="1456" type="line"/>
      <point x="1005" y="557" type="line" smooth="yes"/>
      <point x="1005" y="342"/>
      <point x="920" y="251"/>
      <point x="760" y="251" type="curve" smooth="yes"/>
      <point x="606" y="251"/>
      <point x="522" y="340"/>
      <point x="522" y="555" type="curve" smooth="yes"/>
      <point x="522" y="1456" type="line"/>
      <point x="143" y="1456" type="line"/>
      <point x="143" y="533" type="line" smooth="yes"/>
      <point x="143" y="186"/>
      <point x="353" y="-20"/>
      <point x="760" y="-20" type="curve" smooth="yes"/>
      <point x="1166" y="-20"/>
      <point x="1385" y="189"/>
      <point x="1385" y="533" type="curve" smooth="yes"/>
      <point x="1385" y="1456" type="line"/>
    </contour>
  </outline>
</glyph>
<glyph name="W" format="1">
  <advance width="2047"/>
  <unicode hex="0057"/>
  <outline>
    <contour>
      <point x="1028" y="1456" type="move" name="top"/>
    </contour>
    <contour>
      <point x="1017" y="973" type="line"/>
      <point x="1276" y="0" type="line"/>
      <point x="1620" y="0" type="line"/>
      <point x="1998" y="1456" type="line"/>
      <point x="1631" y="1456" type="line"/>
      <point x="1432" y="489" type="line"/>
      <point x="1167" y="1450" type="line"/>
      <point x="866" y="1450" type="line"/>
      <point x="603" y="496" type="line"/>
      <point x="415" y="1456" type="line"/>
      <point x="49" y="1456" type="line"/>
      <point x="398" y="0" type="line"/>
      <point x="744" y="0" type="line"/>
    </contour>
  </outline>
</glyph>
<glyph name="asciicircum" format="1">
  <advance width="1501"/>
  <unicode hex="005E"/>
  <outline>
    <contour>
      <point x="657" y="1456" type="line"/>
      <point x="108" y="272" type="line"/>
      <point x="463" y="272" type="line"/>
      <point x="741" y="919" type="line"/>
      <point x="1039" y="272" type="line"/>
      <point x="1393" y="272" type="line"/>
      <point x="810" y="1456" type="line"/>
    </contour>
  </outline>
</glyph>
<glyph name="b" format="1">
  <advance width="1268"/>
  <unicode hex="0062"/>
  <outline>
    <contour>
      <point x="775" y="1082" type="move" name="top"/>
    </contour>
    <contour>
      <point x="662" y="208" type="curve" smooth="yes"/>
      <point x="559" y="208"/>
      <point x="517" y="246"/>
      <point x="483" y="290" type="curve"/>
      <point x="483" y="565" type="line" smooth="yes"/>
      <point x="483" y="813"/>
      <point x="578" y="873"/>
      <point x="676" y="873" type="curve" smooth="yes"/>
      <point x="764" y="873"/>
      <point x="827" y="806"/>
      <point x="827" y="549" type="curve" smooth="yes"/>
      <point x="827" y="299"/>
      <point x="750" y="208"/>
    </contour>
    <contour>
      <point x="745" y="-20" type="curve" smooth="yes"/>
      <point x="1042" y="-20"/>
      <point x="1189" y="216"/>
      <point x="1189" y="549" type="curve" smooth="yes"/>
      <point x="1189" y="862"/>
      <point x="1049" y="1102"/>
      <point x="760" y="1102" type="curve" smooth="yes"/>
      <point x="758" y="1102" type="line" smooth="yes"/>
      <point x="617" y="1102"/>
      <point x="525" y="1035"/>
      <point x="473" y="942" type="curve"/>
      <point x="483" y="1149" type="line"/>
      <point x="483" y="1560" type="line"/>
      <point x="128" y="1540" type="line"/>
      <point x="128" y="0" type="line"/>
      <point x="446" y="0" type="line"/>
      <point x="456" y="135" type="line"/>
      <point x="501" y="59"/>
      <point x="591" y="-20"/>
    </contour>
  </outline>
</glyph>
<glyph name="c" format="1">
  <advance width="1129"/>
  <unicode hex="0063"/>
  <outline>
    <contour>
      <point x="621" y="1082" type="move" name="top"/>
    </contour>
    <contour>
      <point x="658" y="861" type="curve" smooth="yes"/>
      <point x="743" y="861"/>
      <point x="819" y="807"/>
      <point x="844" y="723" type="curve"/>
      <point x="856" y="723" type="line"/>
      <point x="1074" y="841" type="line"/>
      <point x="993" y="1023"/>
      <point x="852" y="1102"/>
      <point x="643" y="1102" type="curve" smooth="yes"/>
      <point x="297" y="1102"/>
      <point x="79" y="887"/>
      <point x="79" y="541" type="curve" smooth="yes"/>
      <point x="79" y="195"/>
      <point x="297" y="-20"/>
      <point x="643" y="-20" type="curve" smooth="yes"/>
      <point x="852" y="-20"/>
      <point x="993" y="59"/>
      <point x="1074" y="242" type="curve"/>
      <point x="856" y="359" type="line"/>
      <point x="843" y="359" type="line"/>
      <point x="819" y="275"/>
      <point x="744" y="222"/>
      <point x="660" y="222" type="curve" smooth="yes"/>
      <point x="658" y="222" type="line" smooth="yes"/>
      <point x="546" y="222"/>
      <point x="437" y="316"/>
      <point x="437" y="541" type="curve" smooth="yes"/>
      <point x="437" y="766"/>
      <point x="546" y="861"/>
    </contour>
  </outline>
</glyph>
<glyph name="d" format="1">
  <advance width="1268"/>
  <unicode hex="0064"/>
  <outline>
    <contour>
      <point x="1004" y="1093" type="move" name="caron.alt"/>
    </contour>
    <contour>
      <point x="458" y="1082" type="move" name="top"/>
    </contour>
    <contour>
      <point x="606" y="210" type="curve" smooth="yes"/>
      <point x="518" y="210"/>
      <point x="442" y="275"/>
      <point x="442" y="533" type="curve" smooth="yes"/>
      <point x="442" y="820"/>
      <point x="532" y="875"/>
      <point x="619" y="875" type="curve" smooth="yes"/>
      <point x="704" y="875"/>
      <point x="752" y="836"/>
      <point x="786" y="793" type="curve"/>
      <point x="786" y="307" type="line"/>
      <point x="751" y="247"/>
      <point x="686" y="210"/>
    </contour>
    <contour>
      <point x="787" y="1540" type="line"/>
      <point x="787" y="1138" type="line"/>
      <point x="791" y="978" type="line"/>
      <point x="741" y="1043"/>
      <point x="656" y="1102"/>
      <point x="524" y="1102" type="curve" smooth="yes"/>
      <point x="227" y="1102"/>
      <point x="83" y="867"/>
      <point x="83" y="533" type="curve" smooth="yes"/>
      <point x="83" y="220"/>
      <point x="226" y="-20"/>
      <point x="516" y="-20" type="curve" smooth="yes"/>
      <point x="672" y="-20"/>
      <point x="765" y="61"/>
      <point x="814" y="166" type="curve"/>
      <point x="822" y="0" type="line"/>
      <point x="1141" y="0" type="line"/>
      <point x="1141" y="1560" type="line"/>
    </contour>
  </outline>
</glyph>
<glyph name="h" format="1">
  <advance width="1273"/>
  <unicode hex="0068"/>
  <outline>
    <contour>
      <point x="535" y="1522" type="move" name="top"/>
    </contour>
    <contour>
      <point x="137" y="0" type="line"/>
      <point x="497" y="0" type="line"/>
      <point x="497" y="621" type="line" smooth="yes"/>
      <point x="497" y="799"/>
      <point x="565" y="873"/>
      <point x="660" y="873" type="curve" smooth="yes"/>
      <point x="751" y="873"/>
      <point x="795" y="819"/>
      <point x="795" y="626" type="curve" smooth="yes"/>
      <point x="795" y="0" type="line"/>
      <point x="1156" y="0" type="line"/>
      <point x="1156" y="673" type="line" smooth="yes"/>
      <point x="1156" y="939"/>
      <point x="1046" y="1102"/>
      <point x="805" y="1102" type="curve" smooth="yes"/>
      <point x="635" y="1102"/>
      <point x="542" y="1020"/>
      <point x="491" y="903" type="curve"/>
      <point x="497" y="1159" type="line"/>
      <point x="497" y="1560" type="line"/>
      <point x="137" y="1540" type="line"/>
    </contour>
  </outline>
</glyph>
<glyph name="l" format="1">
  <advance width="769"/>
  <unicode hex="006C"/>
  <outline>
    <contour>
      <point x="318" y="1555" type="move" name="top"/>
    </contour>
    <contour>
      <point x="629" y="-10" type="curve" smooth="yes"/>
      <point x="725" y="-6" type="line"/>
      <point x="738" y="219" type="line"/>
      <point x="737" y="219" type="line" smooth="yes"/>
      <point x="725" y="219"/>
      <point x="592" y="229"/>
      <point x="592" y="229" type="curve" smooth="yes"/>
      <point x="514" y="234"/>
      <point x="494" y="276"/>
      <point x="494" y="329" type="curve" smooth="yes"/>
      <point x="494" y="1560" type="line"/>
      <point x="134" y="1540" type="line"/>
      <point x="134" y="361" type="line" smooth="yes"/>
      <point x="134" y="95"/>
      <point x="252" y="-11"/>
      <point x="567" y="-11" type="curve" smooth="yes"/>
      <point x="587" y="-11"/>
      <point x="608" y="-11"/>
    </contour>
  </outline>
</glyph>
<glyph name="o" format="1">
  <advance width="1254"/>
  <unicode hex="006F"/>
  <outline>
    <contour>
      <point x="628" y="1082" type="move" name="top"/>
    </contour>
    <contour>
      <point x="628" y="-22" type="curve" smooth="yes"/>
      <point x="967" y="-22"/>
      <point x="1175" y="209"/>
      <point x="1175" y="545" type="curve" smooth="yes"/>
      <point x="1175" y="874"/>
      <point x="965" y="1102"/>
      <point x="628" y="1102" type="curve" smooth="yes"/>
      <point x="290" y="1102"/>
      <point x="79" y="874"/>
      <point x="79" y="545" type="curve" smooth="yes"/>
      <point x="79" y="209"/>
      <point x="287" y="-22"/>
    </contour>
    <contour>
      <point x="628" y="208" type="curve" smooth="yes"/>
      <point x="508" y="208"/>
      <point x="438" y="306"/>
      <point x="438" y="545" type="curve" smooth="yes"/>
      <point x="438" y="778"/>
      <point x="507" y="873"/>
      <point x="628" y="873" type="curve" smooth="yes"/>
      <point x="748" y="873"/>
      <point x="816" y="778"/>
      <point x="816" y="545" type="curve" smooth="yes"/>
      <point x="816" y="308"/>
      <point x="745" y="208"/>
    </contour>
  </outline>
</glyph>
<glyph name="q" format="1">
  <advance width="1261"/>
  <unicode hex="0071"/>
  <outline>
    <contour>
      <point x="619" y="208" type="curve" smooth="yes"/>
      <point x="531" y="208"/>
      <point x="441" y="262"/>
      <point x="441" y="550" type="curve" smooth="yes"/>
      <point x="441" y="807"/>
      <point x="518" y="873"/>
      <point x="606" y="873" type="curve" smooth="yes"/>
      <point x="685" y="873"/>
      <point x="750" y="835"/>
      <point x="785" y="773" type="curve"/>
      <point x="785" y="289" type="line"/>
      <point x="752" y="246"/>
      <point x="704" y="208"/>
    </contour>
    <contour>
      <point x="787" y="-476" type="line"/>
      <point x="1140" y="-476" type="line"/>
      <point x="1140" y="1082" type="line"/>
      <point x="822" y="1082" type="line"/>
      <point x="814" y="918" type="line"/>
      <point x="766" y="1021"/>
      <point x="673" y="1102"/>
      <point x="515" y="1102" type="curve" smooth="yes"/>
      <point x="227" y="1102"/>
      <point x="83" y="863"/>
      <point x="83" y="550" type="curve" smooth="yes"/>
      <point x="83" y="216"/>
      <point x="226" y="-20"/>
      <point x="524" y="-20" type="curve" smooth="yes"/>
      <point x="654" y="-20"/>
      <point x="740" y="39"/>
      <point x="791" y="104" type="curve"/>
      <point x="787" y="-51" type="line"/>
    </contour>
  </outline>
</glyph>
<glyph name="r" format="1">
  <advance width="877"/>
  <unicode hex="0072"/>
  <outline>
    <contour>
      <point x="423" y="1082" type="move" name="top"/>
    </contour>
    <contour>
      <point x="121" y="0" type="line"/>
      <point x="481" y="0" type="line"/>
      <point x="481" y="609" type="line" smooth="yes"/>
      <point x="481" y="747"/>
      <point x="605" y="824"/>
      <point x="740" y="824" type="curve" smooth="yes"/>
      <point x="751" y="824"/>
      <point x="763" y="823"/>
      <point x="774" y="822" type="curve" smooth="yes"/>
      <point x="832" y="815" type="line"/>
      <point x="854" y="1075" type="line"/>
      <point x="799" y="1086"/>
      <point x="746" y="1088"/>
      <point x="718" y="1088" type="curve" smooth="yes"/>
      <point x="626" y="1088"/>
      <point x="514" y="1038"/>
      <point x="453" y="909" type="curve"/>
      <point x="435" y="1082" type="line"/>
      <point x="121" y="1082" type="line"/>
    </contour>
  </outline>
</glyph>
<glyph name="s" format="1">
  <advance width="1011"/>
  <unicode hex="0073"/>
  <outline>
    <contour>
      <point x="484" y="1081" type="move" name="top"/>
    </contour>
    <contour>
      <point x="517" y="1102" type="curve" smooth="yes"/>
      <point x="259" y="1102"/>
      <point x="95" y="979"/>
      <point x="95" y="780" type="curve" smooth="yes"/>
      <point x="95" y="619"/>
      <point x="186" y="528"/>
      <point x="388" y="451" type="curve"/>
      <point x="497" y="411" type="line" smooth="yes"/>
      <point x="605" y="371"/>
      <point x="629" y="340"/>
      <point x="629" y="303" type="curve" smooth="yes"/>
      <point x="629" y="255"/>
      <point x="602" y="213"/>
      <point x="527" y="213" type="curve" smooth="yes"/>
      <point x="449" y="213"/>
      <point x="340" y="231"/>
      <point x="249" y="346" type="curve"/>
      <point x="219" y="346" type="line"/>
      <point x="55" y="193" type="line"/>
      <point x="169" y="46"/>
      <point x="326" y="-20"/>
      <point x="545" y="-20" type="curve" smooth="yes"/>
      <point x="769" y="-20"/>
      <point x="970" y="96"/>
      <point x="970" y="313" type="curve" smooth="yes"/>
      <point x="970" y="446"/>
      <point x="939" y="536"/>
      <point x="715" y="633" type="curve" smooth="yes"/>
      <point x="566" y="698" type="line" smooth="yes"/>
      <point x="487" y="732"/>
      <point x="471" y="760"/>
      <point x="471" y="790" type="curve" smooth="yes"/>
      <point x="471" y="838"/>
      <point x="513" y="864"/>
      <point x="573" y="864" type="curve" smooth="yes"/>
      <point x="637" y="863"/>
      <point x="725" y="836"/>
      <point x="784" y="763" type="curve"/>
      <point x="798" y="763" type="line"/>
      <point x="953" y="906" type="line"/>
      <point x="866" y="1052"/>
      <point x="699" y="1102"/>
    </contour>
  </outline>
</glyph>
<glyph name="t" format="1">
  <advance width="896"/>
  <unicode hex="0074"/>
  <outline>
    <contour>
      <point x="428" y="1323" type="move" name="top"/>
    </contour>
    <contour>
      <point x="637" y="-10" type="curve"/>
      <point x="851" y="-3" type="line"/>
      <point x="861" y="229" type="line"/>
      <point x="701" y="236" type="line" smooth="yes"/>
      <point x="580" y="241"/>
      <point x="549" y="290"/>
      <point x="549" y="409" type="curve" smooth="yes"/>
      <point x="549" y="876" type="line"/>
      <point x="837" y="876" type="line"/>
      <point x="837" y="1082" type="line"/>
      <point x="549" y="1082" type="line"/>
      <point x="549" y="1420" type="line"/>
      <point x="224" y="1394" type="line"/>
      <point x="205" y="1085" type="line"/>
      <point x="40" y="1065" type="line"/>
      <point x="33" y="876" type="line"/>
      <point x="195" y="876" type="line"/>
      <point x="195" y="421" type="line" smooth="yes"/>
      <point x="195" y="139"/>
      <point x="247" y="-10"/>
    </contour>
  </outline>
</glyph>
<glyph name="v" format="1">
  <advance width="1101"/>
  <unicode hex="0076"/>
  <outline>
    <contour>
      <point x="377" y="0" type="line"/>
      <point x="734" y="0" type="line"/>
      <point x="1096" y="1082" type="line"/>
      <point x="736" y="1082" type="line"/>
      <point x="619" y="603" type="line"/>
      <point x="571" y="382" type="line"/>
      <point x="508" y="618"/>
      <point x="440" y="849"/>
      <point x="374" y="1082" type="curve"/>
      <point x="6" y="1082" type="line"/>
    </contour>
  </outline>
</glyph>
<glyph name="w" format="1">
  <advance width="1535"/>
  <unicode hex="0077"/>
  <outline>
    <contour>
      <point x="784" y="1082" type="move" name="top"/>
    </contour>
    <contour>
      <point x="782" y="727" type="line"/>
      <point x="930" y="-6" type="line"/>
      <point x="1265" y="-6" type="line"/>
      <point x="1529" y="1082" type="line"/>
      <point x="1225" y="1082" type="line"/>
      <point x="1100" y="349" type="line"/>
      <point x="944" y="1082" type="line"/>
      <point x="625" y="1082" type="line"/>
      <point x="443" y="334" type="line"/>
      <point x="333" y="1082" type="line"/>
      <point x="2" y="1082" type="line"/>
      <point x="259" y="-6" type="line"/>
      <point x="578" y="-6" type="line"/>
    </contour>
  </outline>
</glyph>
<glyph name="y" format="1">
  <advance width="1136"/>
  <unicode hex="0079"/>
  <outline>
    <contour>
      <point x="552" y="1082" type="move" name="top"/>
    </contour>
    <contour>
      <point x="1151" y="1082" type="line"/>
      <point x="819" y="1082" type="line"/>
      <point x="576" y="482" type="line"/>
      <point x="320" y="1082" type="line"/>
      <point x="-29" y="1082" type="line"/>
      <point x="400" y="152" type="line"/>
      <point x="181" y="-341" type="line"/>
      <point x="466" y="-453" type="line"/>
    </contour>
  </outline>
</glyph>
<glyph name="z" format="1">
  <advance width="957"/>
  <unicode hex="007A"/>
  <outline>
    <contour>
      <point x="476" y="1082" type="move" name="top"/>
    </contour>
    <contour>
      <point x="71" y="1082" type="line"/>
      <point x="65" y="870" type="line"/>
      <point x="512" y="870" type="line"/>
      <point x="66" y="171" type="line"/>
      <point x="66" y="0" type="line"/>
      <point x="920" y="0" type="line"/>
      <point x="927" y="220" type="line"/>
      <point x="471" y="220" type="line"/>
      <point x="900" y="889" type="line"/>
      <point x="900" y="1082" type="line"/>
    </contour>
  </outline>
</glyph>
<glyph name="section" format="1">
  <advance width="1023"/>
  <unicode hex="00A7"/>
  <outline>
    <contour>
      <point x="652" y="646" type="curve" smooth="yes"/>
      <point x="649" y="647"/>
      <point x="587" y="676"/>
      <point x="575" y="680" type="curve" smooth="yes"/>
      <point x="422" y="751"/>
      <point x="380" y="771"/>
      <point x="380" y="818" type="curve" smooth="yes"/>
      <point x="380" y="856"/>
      <point x="407" y="887"/>
      <point x="427" y="896" type="curve" smooth="yes"/>
      <point x="428" y="896"/>
      <point x="517" y="861"/>
      <point x="576" y="832" type="curve" smooth="yes"/>
      <point x="659" y="791"/>
      <point x="686" y="751"/>
      <point x="686" y="713" type="curve" smooth="yes"/>
      <point x="686" y="687"/>
      <point x="672" y="664"/>
    </contour>
    <contour>
      <point x="496" y="-21" type="curve" smooth="yes"/>
      <point x="726" y="-21"/>
      <point x="889" y="79"/>
      <point x="889" y="352" type="curve" smooth="yes"/>
      <point x="889" y="436"/>
      <point x="854" y="513"/>
      <point x="779" y="574" type="curve"/>
      <point x="845" y="630"/>
      <point x="899" y="698"/>
      <point x="899" y="808" type="curve" smooth="yes"/>
      <point x="899" y="921"/>
      <point x="844" y="1002"/>
      <point x="675" y="1076" type="curve" smooth="yes"/>
      <point x="449" y="1173"/>
      <point x="436" y="1199"/>
      <point x="436" y="1247" type="curve" smooth="yes"/>
      <point x="436" y="1301"/>
      <point x="489" y="1323"/>
      <point x="566" y="1323" type="curve" smooth="yes"/>
      <point x="648" y="1323"/>
      <point x="747" y="1297"/>
      <point x="812" y="1261" type="curve"/>
      <point x="873" y="1444" type="line"/>
      <point x="768" y="1514"/>
      <point x="638" y="1548"/>
      <point x="542" y="1548" type="curve" smooth="yes"/>
      <point x="371" y="1548"/>
      <point x="150" y="1486"/>
      <point x="150" y="1226" type="curve" smooth="yes"/>
      <point x="150" y="1114"/>
      <point x="204" y="1035"/>
      <point x="310" y="963" type="curve"/>
      <point x="230" y="902"/>
      <point x="163" y="825"/>
      <point x="163" y="735" type="curve" smooth="yes"/>
      <point x="163" y="604"/>
      <point x="255" y="543"/>
      <point x="426" y="468" type="curve" smooth="yes"/>
      <point x="588" y="398"/>
      <point x="621" y="362"/>
      <point x="621" y="314" type="curve" smooth="yes"/>
      <point x="621" y="244"/>
      <point x="573" y="207"/>
      <point x="491" y="207" type="curve" smooth="yes"/>
      <point x="379" y="207"/>
      <point x="233" y="264"/>
      <point x="171" y="302" type="curve"/>
      <point x="171" y="65" type="line"/>
      <point x="265" y="15"/>
      <point x="393" y="-21"/>
    </contour>
  </outline>
</glyph>
<glyph name="copyright" format="1">
  <advance width="1792"/>
  <unicode hex="00A9"/>
  <outline>
    <contour>
      <point x="888" y="-55" type="curve" smooth="yes"/>
      <point x="1321" y="-55"/>
      <point x="1674" y="286"/>
      <point x="1674" y="729" type="curve" smooth="yes"/>
      <point x="1674" y="1171"/>
      <point x="1321" y="1511"/>
      <point x="888" y="1511" type="curve" smooth="yes"/>
      <point x="455" y="1511"/>
      <point x="103" y="1171"/>
      <point x="103" y="729" type="curve" smooth="yes"/>
      <point x="103" y="286"/>
      <point x="455" y="-55"/>
    </contour>
    <contour>
      <point x="888" y="103" type="curve" smooth="yes"/>
      <point x="550" y="103"/>
      <point x="276" y="377"/>
      <point x="276" y="729" type="curve" smooth="yes"/>
      <point x="276" y="1080"/>
      <point x="550" y="1353"/>
      <point x="888" y="1353" type="curve" smooth="yes"/>
      <point x="1226" y="1353"/>
      <point x="1500" y="1080"/>
      <point x="1500" y="729" type="curve" smooth="yes"/>
      <point x="1500" y="377"/>
      <point x="1226" y="103"/>
    </contour>
    <contour>
      <point x="910" y="251" type="curve" smooth="yes"/>
      <point x="1010" y="251"/>
      <point x="1109" y="278"/>
      <point x="1194" y="331" type="curve"/>
      <point x="1146" y="458" type="line"/>
      <point x="1071" y="418"/>
      <point x="995" y="398"/>
      <point x="924" y="398" type="curve" smooth="yes"/>
      <point x="758" y="398"/>
      <point x="625" y="509"/>
      <point x="625" y="738" type="curve" smooth="yes"/>
      <point x="625" y="966"/>
      <point x="757" y="1078"/>
      <point x="923" y="1078" type="curve" smooth="yes"/>
      <point x="993" y="1078"/>
      <point x="1071" y="1057"/>
      <point x="1145" y="1017" type="curve"/>
      <point x="1193" y="1144" type="line"/>
      <point x="1109" y="1197"/>
      <point x="1009" y="1224"/>
      <point x="909" y="1224" type="curve" smooth="yes"/>
      <point x="668" y="1224"/>
      <point x="433" y="1063"/>
      <point x="433" y="738" type="curve" smooth="yes"/>
      <point x="433" y="412"/>
      <point x="668" y="251"/>
    </contour>
  </outline>
</glyph>
<glyph name="degree" format="1">
  <advance width="828"/>
  <unicode hex="00B0"/>
  <outline>
    <contour>
      <point x="423" y="901" type="curve" smooth="yes"/>
      <point x="627" y="901"/>
      <point x="738" y="1055"/>
      <point x="738" y="1212" type="curve" smooth="yes"/>
      <point x="738" y="1374"/>
      <point x="623" y="1513"/>
      <point x="423" y="1513" type="curve" smooth="yes"/>
      <point x="219" y="1513"/>
      <point x="106" y="1374"/>
      <point x="106" y="1212" type="curve" smooth="yes"/>
      <point x="106" y="1053"/>
      <point x="215" y="901"/>
    </contour>
    <contour>
      <point x="423" y="1057" type="curve" smooth="yes"/>
      <point x="347" y="1057"/>
      <point x="278" y="1111"/>
      <point x="278" y="1211" type="curve" smooth="yes"/>
      <point x="278" y="1307"/>
      <point x="347" y="1361"/>
      <point x="424" y="1361" type="curve" smooth="yes"/>
      <point x="495" y="1361"/>
      <point x="565" y="1307"/>
      <point x="565" y="1211" type="curve" smooth="yes"/>
      <point x="565" y="1110"/>
      <point x="497" y="1057"/>
    </contour>
  </outline>
</glyph>
<glyph name="uni00B5" format="1">
  <advance width="1244"/>
  <unicode hex="00B5"/>
  <outline>
    <component base="u"/>
    <contour>
      <point x="106" y="602" type="line"/>
      <point x="106" y="-328" type="line"/>
      <point x="466" y="-328" type="line"/>
      <point x="466" y="602" type="line"/>
    </contour>
  </outline>
</glyph>
<glyph name="periodcentered" format="1">
  <advance width="597"/>
  <unicode hex="00B7"/>
  <outline>
    <contour>
      <point x="492" y="447" type="curve" smooth="yes"/>
      <point x="596" y="447"/>
      <point x="662" y="517"/>
      <point x="662" y="628" type="curve" smooth="yes"/>
      <point x="662" y="735"/>
      <point x="596" y="802"/>
      <point x="492" y="802" type="curve" smooth="yes"/>
      <point x="387" y="802"/>
      <point x="320" y="735"/>
      <point x="320" y="628" type="curve" smooth="yes"/>
      <point x="320" y="517"/>
      <point x="387" y="447"/>
    </contour>
  </outline>
</glyph>
<glyph name="uni00B9" format="1">
  <advance width="857"/>
  <unicode hex="00B9"/>
  <outline>
    <contour>
      <point x="236" y="554" type="line"/>
      <point x="715" y="554" type="line"/>
      <point x="715" y="727" type="line"/>
      <point x="578" y="727" type="line"/>
      <point x="578" y="1459" type="line"/>
      <point x="419" y="1459" type="line"/>
      <point x="393" y="1446"/>
      <point x="267" y="1370"/>
      <point x="219" y="1343" type="curve"/>
      <point x="219" y="1170" type="line"/>
      <point x="219" y="1170"/>
      <point x="331" y="1228"/>
      <point x="368" y="1246" type="curve"/>
      <point x="368" y="727" type="line"/>
      <point x="236" y="727" type="line"/>
    </contour>
  </outline>
</glyph>
<glyph name="germandbls" format="1">
  <advance width="1338"/>
  <unicode hex="00DF"/>
  <outline>
    <contour>
      <point x="912" y="-20" type="curve" smooth="yes"/>
      <point x="1180" y="-20"/>
      <point x="1303" y="106"/>
      <point x="1303" y="327" type="curve" smooth="yes"/>
      <point x="1303" y="648"/>
      <point x="925" y="707"/>
      <point x="925" y="759" type="curve" smooth="yes"/>
      <point x="925" y="805"/>
      <point x="1142" y="878"/>
      <point x="1142" y="1109" type="curve" smooth="yes"/>
      <point x="1142" y="1354"/>
      <point x="921" y="1471"/>
      <point x="646" y="1471" type="curve" smooth="yes"/>
      <point x="343" y="1471"/>
      <point x="120" y="1291"/>
      <point x="120" y="995" type="curve" smooth="yes"/>
      <point x="120" y="-1" type="line"/>
      <point x="481" y="-1" type="line"/>
      <point x="481" y="954" type="line" smooth="yes"/>
      <point x="481" y="1119"/>
      <point x="533" y="1223"/>
      <point x="668" y="1223" type="curve" smooth="yes"/>
      <point x="753" y="1223"/>
      <point x="812" y="1193"/>
      <point x="812" y="1107" type="curve" smooth="yes"/>
      <point x="812" y="942"/>
      <point x="644" y="902"/>
      <point x="644" y="728" type="curve" smooth="yes"/>
      <point x="644" y="536"/>
      <point x="921" y="520"/>
      <point x="921" y="335" type="curve" smooth="yes"/>
      <point x="921" y="254"/>
      <point x="873" y="222"/>
      <point x="803" y="222" type="curve" smooth="yes"/>
      <point x="741" y="222"/>
      <point x="666" y="248"/>
      <point x="630" y="268" type="curve"/>
      <point x="565" y="51" type="line"/>
      <point x="692" y="1"/>
      <point x="816" y="-20"/>
    </contour>
  </outline>
</glyph>
<glyph name="oslash" format="1">
  <advance width="1254"/>
  <unicode hex="00F8"/>
  <outline>
    <component base="o"/>
    <contour>
      <point x="233" y="-126" type="line"/>
      <point x="310" y="-178" type="line"/>
      <point x="1052" y="1209" type="line"/>
      <point x="969" y="1261" type="line"/>
    </contour>
  </outline>
</glyph>
<glyph name="Hbar" format="1">
  <advance width="1589"/>
  <unicode hex="0126"/>
  <outline>
    <component base="H"/>
    <contour>
      <point x="63" y="1289" type="line"/>
      <point x="63" y="1089" type="line"/>
      <point x="1522" y="1089" type="line"/>
      <point x="1522" y="1289" type="line"/>
    </contour>
  </outline>
</glyph>
<glyph name="kgreenlandic" format="1">
  <advance width="1189"/>
  <unicode hex="0138"/>
  <outline>
    <contour>
      <point x="108" y="0" type="line"/>
      <point x="383" y="0" type="line"/>
      <point x="383" y="359" type="line"/>
      <point x="459" y="439" type="line"/>
      <point x="780" y="0" type="line"/>
      <point x="1098" y="0" type="line"/>
      <point x="1098" y="7" type="line"/>
      <point x="671" y="587" type="line"/>
      <point x="1075" y="1064" type="line"/>
      <point x="1075" y="1082" type="line"/>
      <point x="755" y="1082" type="line"/>
      <point x="377" y="624" type="line"/>
      <point x="383" y="841" type="line"/>
      <point x="383" y="1082" type="line"/>
      <point x="108" y="1082" type="line"/>
    </contour>
  </outline>
</glyph>
<glyph name="uni0237" format="1">
  <advance width="706"/>
  <unicode hex="0237"/>
  <outline>
    <contour>
      <point x="194" y="1082" type="line"/>
      <point x="194" y="2" type="line" smooth="yes"/>
      <point x="194" y="-148"/>
      <point x="173" y="-190"/>
      <point x="4" y="-266" type="curve" smooth="yes"/>
      <point x="-89" y="-308" type="line"/>
      <point x="37" y="-567" type="line"/>
      <point x="127" y="-527" type="line" smooth="yes"/>
      <point x="393" y="-408"/>
      <point x="554" y="-337"/>
      <point x="554" y="-31" type="curve" smooth="yes"/>
      <point x="554" y="1082" type="line"/>
    </contour>
  </outline>
</glyph>
<glyph name="uni0259" format="1">
  <advance width="1199"/>
  <unicode hex="0259"/>
  <outline>
    <contour>
      <point x="749" y="458" type="line"/>
      <point x="741" y="277"/>
      <point x="662" y="205"/>
      <point x="548" y="205" type="curve" smooth="yes"/>
      <point x="440" y="205"/>
      <point x="384" y="280"/>
      <point x="384" y="458" type="curve"/>
    </contour>
    <contour>
      <point x="528" y="1102" type="curve" smooth="yes"/>
      <point x="345" y="1102"/>
      <point x="182" y="1047"/>
      <point x="98" y="968" type="curve"/>
      <point x="175" y="785" type="line"/>
      <point x="192" y="785" type="line"/>
      <point x="276" y="838"/>
      <point x="377" y="874"/>
      <point x="488" y="874" type="curve" smooth="yes"/>
      <point x="631" y="874"/>
      <point x="736" y="795"/>
      <point x="752" y="648" type="curve"/>
      <point x="97" y="648" type="line"/>
      <point x="97" y="648"/>
      <point x="84" y="591"/>
      <point x="84" y="505" type="curve" smooth="yes"/>
      <point x="93" y="198"/>
      <point x="222" y="-20"/>
      <point x="566" y="-20" type="curve" smooth="yes"/>
      <point x="898" y="-20"/>
      <point x="1111" y="195"/>
      <point x="1111" y="540" type="curve" smooth="yes"/>
      <point x="1111" y="886"/>
      <point x="884" y="1102"/>
    </contour>
  </outline>
</glyph>
<glyph name="uni02BC" format="1">
  <advance width="650"/>
  <unicode hex="02BC"/>
  <outline>
    <contour>
      <point x="48" y="1092" type="curve"/>
      <point x="294" y="1092" type="line"/>
      <point x="294" y="1092"/>
      <point x="356" y="1375"/>
      <point x="390" y="1563" type="curve"/>
      <point x="99" y="1563" type="line"/>
      <point x="89" y="1468"/>
      <point x="48" y="1092"/>
    </contour>
  </outline>
</glyph>
<glyph name="circumflex" format="1">
  <advance width="932"/>
  <unicode hex="02C6"/>
  <outline>
    <contour>
      <point x="448" y="1082" type="move" name="_top"/>
    </contour>
    <contour>
      <point x="84" y="1306" type="line"/>
      <point x="356" y="1306" type="line"/>
      <point x="449" y="1514" type="line"/>
      <point x="542" y="1306" type="line"/>
      <point x="814" y="1306" type="line"/>
      <point x="601" y="1702" type="line"/>
      <point x="297" y="1702" type="line"/>
    </contour>
  </outline>
</glyph>
<glyph name="breve" format="1">
  <advance width="937"/>
  <unicode hex="02D8"/>
  <outline>
    <contour>
      <point x="447" y="1081" type="move" name="_top"/>
    </contour>
    <contour>
      <point x="447" y="1321" type="curve" smooth="yes"/>
      <point x="628" y="1321"/>
      <point x="744" y="1425"/>
      <point x="744" y="1595" type="curve"/>
      <point x="555" y="1595" type="line"/>
      <point x="555" y="1538"/>
      <point x="512" y="1504"/>
      <point x="447" y="1504" type="curve" smooth="yes"/>
      <point x="382" y="1504"/>
      <point x="339" y="1538"/>
      <point x="339" y="1595" type="curve"/>
      <point x="147" y="1595" type="line"/>
      <point x="147" y="1425"/>
      <point x="264" y="1321"/>
    </contour>
  </outline>
</glyph>
<glyph name="ogonek" format="1">
  <advance width="766"/>
  <unicode hex="02DB"/>
  <outline>
    <contour>
      <point x="451" y="-448" type="curve" smooth="yes"/>
      <point x="518" y="-448"/>
      <point x="582" y="-433"/>
      <point x="646" y="-408" type="curve"/>
      <point x="637" y="-246" type="line"/>
      <point x="625" y="-254"/>
      <point x="562" y="-282"/>
      <point x="503" y="-282" type="curve" smooth="yes"/>
      <point x="461" y="-282"/>
      <point x="433" y="-241"/>
      <point x="433" y="-206" type="curve" smooth="yes"/>
      <point x="433" y="-147"/>
      <point x="464" y="-62"/>
      <point x="546" y="4" type="curve"/>
      <point x="426" y="4" type="line"/>
      <point x="350" y="-40"/>
      <point x="239" y="-123"/>
      <point x="239" y="-260" type="curve" smooth="yes"/>
      <point x="239" y="-389"/>
      <point x="340" y="-448"/>
    </contour>
  </outline>
</glyph>
<glyph name="uni030F" format="1">
  <advance width="1107"/>
  <unicode hex="030F"/>
  <outline>
    <contour>
      <point x="579" y="1081" type="move" name="_top"/>
    </contour>
    <contour>
      <point x="687" y="1259" type="line"/>
      <point x="860" y="1259" type="line"/>
      <point x="703" y="1663" type="line"/>
      <point x="431" y="1663" type="line"/>
    </contour>
    <contour>
      <point x="320" y="1259" type="line"/>
      <point x="482" y="1259" type="line"/>
      <point x="337" y="1663" type="line"/>
      <point x="40" y="1663" type="line"/>
    </contour>
  </outline>
</glyph>
<glyph name="uni0326" format="1">
  <advance width="623"/>
  <unicode hex="0326"/>
  <outline>
    <contour>
      <point x="126" y="-553" type="curve"/>
      <point x="346" y="-553" type="line"/>
      <point x="346" y="-553"/>
      <point x="489" y="-105"/>
      <point x="489" y="-101" type="curve"/>
      <point x="210" y="-101" type="line"/>
      <point x="210" y="-108"/>
      <point x="126" y="-553"/>
    </contour>
  </outline>
</glyph>
<glyph name="uni0358" format="1">
  <advance width="635"/>
  <unicode hex="0358"/>
  <outline>
    <contour>
      <point x="511" y="1456" type="curve" smooth="yes"/>
      <point x="511" y="1562"/>
      <point x="438" y="1628"/>
      <point x="320" y="1628" type="curve" smooth="yes"/>
      <point x="203" y="1628"/>
      <point x="129" y="1562"/>
      <point x="129" y="1456" type="curve" smooth="yes"/>
      <point x="129" y="1345"/>
      <point x="203" y="1276"/>
      <point x="320" y="1276" type="curve" smooth="yes"/>
      <point x="438" y="1276"/>
      <point x="511" y="1345"/>
    </contour>
  </outline>
</glyph>
<glyph name="Sigma" format="1">
  <advance width="1199"/>
  <unicode hex="03A3"/>
  <outline>
    <contour>
      <point x="72" y="1456" type="line"/>
      <point x="72" y="1230" type="line"/>
      <point x="563" y="577" type="line"/>
      <point x="67" y="-52" type="line"/>
      <point x="67" y="-274" type="line"/>
      <point x="1138" y="-274" type="line"/>
      <point x="1138" y="-3" type="line"/>
      <point x="435" y="-3" type="line"/>
      <point x="928" y="594" type="line"/>
      <point x="501" y="1190" type="line"/>
      <point x="1105" y="1190" type="line"/>
      <point x="1105" y="1456" type="line"/>
    </contour>
  </outline>
</glyph>
<glyph name="emdash" format="1">
  <advance width="2240"/>
  <unicode hex="2014"/>
  <outline>
    <contour>
      <point x="60" y="450" type="line"/>
      <point x="2180" y="450" type="line"/>
      <point x="2180" y="660" type="line"/>
      <point x="60" y="660" type="line"/>
    </contour>
  </outline>
</glyph>
<glyph name="quoteleft" format="1">
  <advance width="530"/>
  <unicode hex="2018"/>
  <outline>
    <contour>
      <point x="450" y="1555" type="line"/>
      <point x="238" y="1555" type="line"/>
      <point x="114" y="1033" type="line"/>
      <point x="414" y="1033" type="line"/>
    </contour>
  </outline>
</glyph>
<glyph name="quotedblright" format="1">
  <advance width="975"/>
  <unicode hex="201D"/>
  <outline>
    <contour>
      <point x="114" y="1033" type="line"/>
      <point x="326" y="1033" type="line"/>
      <point x="450" y="1555" type="line"/>
      <point x="150" y="1555" type="line"/>
    </contour>
    <contour>
      <point x="540" y="1033" type="line"/>
      <point x="752" y="1033" type="line"/>
      <point x="876" y="1555" type="line"/>
      <point x="576" y="1555" type="line"/>
    </contour>
  </outline>
</glyph>
<glyph name="dagger" format="1">
  <advance width="1160"/>
  <unicode hex="2020"/>
  <outline>
    <contour>
      <point x="415" y="1459" type="line"/>
      <point x="415" y="1084" type="line"/>
      <point x="108" y="1084" type="line"/>
      <point x="108" y="876" type="line"/>
      <point x="415" y="876" type="line"/>
      <point x="415" y="-109" type="line"/>
      <point x="737" y="-109" type="line"/>
      <point x="737" y="876" type="line"/>
      <point x="1065" y="876" type="line"/>
      <point x="1065" y="1084" type="line"/>
      <point x="745" y="1084" type="line"/>
      <point x="745" y="1459" type="line"/>
    </contour>
  </outline>
</glyph>
<glyph name="guilsinglleft" format="1">
  <advance width="920"/>
  <unicode hex="2039"/>
  <outline>
    <contour>
      <point x="480" y="171" type="line"/>
      <point x="683" y="171" type="line"/>
      <point x="424" y="594" type="line"/>
      <point x="687" y="1036" type="line"/>
      <point x="488" y="1036" type="line"/>
      <point x="209" y="597" type="line"/>
    </contour>
  </outline>
</glyph>
<glyph name="afii61289" format="1">
  <advance width="1361"/>
  <unicode hex="2113"/>
  <outline>
    <contour>
      <point x="773" y="911" type="curve"/>
      <point x="867" y="1298" type="line" smooth="yes"/>
      <point x="899" y="1432"/>
      <point x="976" y="1485"/>
      <point x="1044" y="1485" type="curve" smooth="yes"/>
      <point x="1114" y="1485"/>
      <point x="1175" y="1430"/>
      <point x="1175" y="1346" type="curve" smooth="yes"/>
      <point x="1175" y="1254"/>
      <point x="1096" y="1128"/>
      <point x="931" y="1019" type="curve" smooth="yes"/>
      <point x="928" y="1019"/>
      <point x="833" y="954"/>
    </contour>
    <contour>
      <point x="288" y="305" type="curve" smooth="yes"/>
      <point x="288" y="83"/>
      <point x="415" y="-20"/>
      <point x="601" y="-20" type="curve" smooth="yes"/>
      <point x="876" y="-20"/>
      <point x="1055" y="98"/>
      <point x="1055" y="98" type="curve"/>
      <point x="1025" y="302" type="line"/>
      <point x="923" y="262"/>
      <point x="826" y="230"/>
      <point x="751" y="230" type="curve" smooth="yes"/>
      <point x="682" y="230"/>
      <point x="640" y="259"/>
      <point x="640" y="335" type="curve" smooth="yes"/>
      <point x="640" y="358"/>
      <point x="644" y="385"/>
      <point x="652" y="417" type="curve" smooth="yes"/>
      <point x="712" y="662" type="line"/>
      <point x="998" y="865" type="line" smooth="yes"/>
      <point x="1253" y="1046"/>
      <point x="1356" y="1133"/>
      <point x="1356" y="1343" type="curve" smooth="yes"/>
      <point x="1356" y="1579"/>
      <point x="1163" y="1708"/>
      <point x="964" y="1708" type="curve" smooth="yes"/>
      <point x="794" y="1708"/>
      <point x="621" y="1612"/>
      <point x="562" y="1396" type="curve" smooth="yes"/>
      <point x="365" y="670" type="line"/>
      <point x="66" y="452" type="line"/>
      <point x="125" y="334" type="line"/>
      <point x="304" y="457" type="line"/>
      <point x="292" y="401"/>
      <point x="288" y="351"/>
    </contour>
  </outline>
</glyph>
<glyph name="Delta" format="1">
  <advance width="1332"/>
  <unicode hex="2206"/>
  <outline>
    <contour>
      <point x="700" y="1231" type="line"/>
      <point x="1062" y="179" type="line"/>
      <point x="277" y="179" type="line"/>
      <point x="631" y="1231" type="line"/>
      <point x="666" y="1354" type="line"/>
    </contour>
    <contour>
      <point x="574" y="1589" type="line"/>
      <point x="72" y="89" type="line"/>
      <point x="72" y="0" type="line"/>
      <point x="1266" y="0" type="line"/>
      <point x="1266" y="89" type="line"/>
      <point x="766" y="1589" type="line"/>
    </contour>
  </outline>
</glyph>
<glyph name="radical" format="1">
  <advance width="1379"/>
  <unicode hex="221A"/>
  <outline>
    <contour>
      <point x="1050" y="1573" type="line"/>
      <point x="1039" y="1527"/>
      <point x="640" y="226"/>
      <point x="629" y="180" type="curve"/>
      <point x="544" y="445"/>
      <point x="451" y="703"/>
      <point x="362" y="964" type="curve"/>
      <point x="15" y="861" type="line"/>
      <point x="45" y="736" type="line"/>
      <point x="187" y="777" type="line"/>
      <point x="534" y="-168" type="line"/>
      <point x="830" y="-168" type="line"/>
      <point x="1348" y="1573" type="line"/>
    </contour>
  </outline>
</glyph>
<glyph name="infinity" format="1">
  <advance width="1784"/>
  <unicode hex="221E"/>
  <outline>
    <contour>
      <point x="1488" y="680" type="curve" smooth="yes"/>
      <point x="1488" y="549"/>
      <point x="1435" y="465"/>
      <point x="1320" y="465" type="curve" smooth="yes"/>
      <point x="1228" y="465"/>
      <point x="1156" y="524"/>
      <point x="1058" y="654" type="curve"/>
      <point x="1135" y="759"/>
      <point x="1219" y="838"/>
      <point x="1316" y="838" type="curve" smooth="yes"/>
      <point x="1417" y="838"/>
      <point x="1488" y="764"/>
    </contour>
    <contour>
      <point x="745" y="652" type="curve"/>
      <point x="664" y="541"/>
      <point x="574" y="465"/>
      <point x="479" y="465" type="curve" smooth="yes"/>
      <point x="370" y="465"/>
      <point x="295" y="560"/>
      <point x="295" y="652" type="curve" smooth="yes"/>
      <point x="295" y="753"/>
      <point x="363" y="838"/>
      <point x="472" y="838" type="curve" smooth="yes"/>
      <point x="578" y="838"/>
      <point x="665" y="767"/>
    </contour>
    <contour>
      <point x="899" y="764" type="curve"/>
      <point x="775" y="931"/>
      <point x="646" y="1044"/>
      <point x="473" y="1044" type="curve" smooth="yes"/>
      <point x="274" y="1044"/>
      <point x="115" y="879"/>
      <point x="115" y="675" type="curve" smooth="yes"/>
      <point x="115" y="450"/>
      <point x="249" y="256"/>
      <point x="477" y="256" type="curve" smooth="yes"/>
      <point x="646" y="256"/>
      <point x="778" y="372"/>
      <point x="899" y="535" type="curve"/>
      <point x="1038" y="348"/>
      <point x="1163" y="256"/>
      <point x="1318" y="256" type="curve" smooth="yes"/>
      <point x="1519" y="256"/>
      <point x="1676" y="422"/>
      <point x="1676" y="657" type="curve" smooth="yes"/>
      <point x="1676" y="880"/>
      <point x="1548" y="1044"/>
      <point x="1320" y="1044" type="curve" smooth="yes"/>
      <point x="1143" y="1044"/>
      <point x="1015" y="926"/>
    </contour>
  </outline>
</glyph>
<glyph name="greaterequal" format="1">
  <advance width="1192"/>
  <unicode hex="2265"/>
  <outline>
    <contour>
      <point x="137" y="3" type="line"/>
      <point x="1069" y="3" type="line"/>
      <point x="1069" y="180" type="line"/>
      <point x="137" y="181" type="line"/>
    </contour>
    <contour>
      <point x="142" y="215" type="line"/>
      <point x="1066" y="690" type="line"/>
      <point x="1066" y="819" type="line"/>
      <point x="143" y="1304" type="line"/>
      <point x="143" y="1080" type="line"/>
      <point x="831" y="754" type="line"/>
      <point x="142" y="445" type="line"/>
    </contour>
  </outline>
</glyph>
<glyph name="lozenge" format="1">
  <advance width="1218"/>
  <unicode hex="25CA"/>
  <outline>
    <contour>
      <point x="935" y="739" type="curve"/>
      <point x="728" y="351"/>
      <point x="803" y="546"/>
      <point x="596" y="158" type="curve"/>
      <point x="392" y="543"/>
      <point x="482" y="351"/>
      <point x="282" y="738" type="curve"/>
      <point x="487" y="1125"/>
      <point x="403" y="933"/>
      <point x="611" y="1318" type="curve"/>
      <point x="809" y="930"/>
      <point x="735" y="1123"/>
    </contour>
    <contour>
      <point x="541" y="1522" type="line"/>
      <point x="95" y="736" type="line"/>
      <point x="534" y="-45" type="line"/>
      <point x="670" y="-45" type="line"/>
      <point x="1121" y="736" type="line"/>
      <point x="680" y="1522" type="line"/>
    </contour>
  </outline>
</glyph>
